<svg width="513" height="132" viewBox="0 0 513 132" fill="none" xmlns="http://www.w3.org/2000/svg">
<g clip-path="url(#clip0_7_55)">
<path d="M56.1247 28.3264V52.8511C56.1247 54.5616 55.4452 56.202 54.2358 57.4114C53.0263 58.6209 51.3859 59.3004 49.6754 59.3004H25.8183C24.1078 59.3004 22.4675 59.9799 21.258 61.1893C20.0485 62.3988 19.369 64.0392 19.369 65.7496V92.0202C19.369 95.582 19.2711 101.444 20.3935 104.809C22.3803 110.764 27.09 115.474 33.0453 117.46C36.4094 118.583 42.2718 118.485 45.8336 118.485H86.6452C90.2071 118.485 96.0695 118.582 99.4335 117.46C105.388 115.473 110.097 110.763 112.084 104.809C113.206 101.444 113.109 95.582 113.109 92.0202V48.3417C113.109 44.7799 113.206 38.9175 112.084 35.5534C110.097 29.5985 105.388 24.889 99.4335 22.902C96.0694 21.7794 90.2071 21.8771 86.6452 21.8771H62.5739C61.727 21.8771 60.8884 22.044 60.1059 22.3681C59.3235 22.6922 58.6125 23.1672 58.0136 23.7661C57.4148 24.3649 56.9397 25.0759 56.6156 25.8584C56.2915 26.6408 56.1247 27.4795 56.1247 28.3264Z" fill="#282828"/>
<path d="M27.1925 18.7454V24.6467C27.1925 25.2396 27.0758 25.8266 26.8489 26.3743C26.622 26.9221 26.2895 27.4197 25.8703 27.8389C25.4511 28.2581 24.9534 28.5907 24.4057 28.8176C23.858 29.0444 23.2709 29.1612 22.6781 29.1612H16.3334C15.7405 29.1612 15.1535 29.278 14.6058 29.5048C14.058 29.7317 13.5604 30.0642 13.1412 30.4834C12.722 30.9027 12.3894 31.4004 12.1626 31.9481C11.9357 32.4958 11.8189 33.0828 11.8189 33.6757V47.1385C11.8189 47.7313 11.9357 48.3184 12.1626 48.8661C12.3894 49.4138 12.722 49.9114 13.1412 50.3307C13.5604 50.7499 14.058 51.0824 14.6058 51.3093C15.1535 51.5362 15.7405 51.6529 16.3334 51.6529H44.0601C44.6529 51.6529 45.24 51.5362 45.7877 51.3093C46.3354 51.0824 46.8331 50.7499 47.2523 50.3307C47.6715 49.9114 48.004 49.4138 48.2309 48.8661C48.4578 48.3184 48.5745 47.7313 48.5745 47.1385V18.7454C48.5745 17.5481 48.0989 16.3998 47.2523 15.5532C46.4057 14.7066 45.2574 14.231 44.0601 14.231H31.707C31.1141 14.231 30.5271 14.3477 29.9794 14.5746C29.4317 14.8015 28.934 15.134 28.5148 15.5532C28.0956 15.9724 27.7631 16.4701 27.5362 17.0178C27.3093 17.5655 27.1925 18.1526 27.1925 18.7454Z" fill="#6B00FF"/>
<path d="M52.7218 86.5963C52.7218 87.8287 52.479 89.049 52.0074 90.1875C51.5358 91.3261 50.8446 92.3606 49.9732 93.232C49.1018 94.1034 48.0673 94.7946 46.9287 95.2662C45.7902 95.7378 44.5699 95.9805 43.3376 95.9805C40.8487 95.9805 38.4618 94.9918 36.702 93.232C34.9421 91.4721 33.9534 89.0852 33.9534 86.5963C33.9534 85.364 34.1961 84.1437 34.6677 83.0052C35.1393 81.8666 35.8305 80.8321 36.7019 79.9607C37.5733 79.0893 38.6079 78.3981 39.7464 77.9265C40.8849 77.4549 42.1052 77.2122 43.3376 77.2122C44.5699 77.2122 45.7902 77.4549 46.9287 77.9265C48.0673 78.3981 49.1018 79.0893 49.9732 79.9607C50.8446 80.8321 51.5358 81.8666 52.0074 83.0052C52.479 84.1437 52.7218 85.364 52.7218 86.5963Z" fill="white"/>
<path d="M85.7421 38.5531H100.818C101.032 38.5531 101.244 38.6056 101.433 38.7059C101.623 38.8063 101.785 38.9515 101.905 39.1289C102.026 39.3062 102.101 39.5104 102.124 39.7236C102.148 39.9367 102.119 40.1523 102.04 40.3516L78.8633 98.7995C78.6529 99.3301 78.2879 99.7852 77.8158 100.106C77.3437 100.427 76.7861 100.598 76.2153 100.598H61.1394C60.925 100.598 60.7138 100.546 60.5243 100.445C60.3349 100.345 60.1728 100.2 60.0523 100.022C59.9319 99.8449 59.8566 99.6408 59.8332 99.4276C59.8097 99.2145 59.8388 98.9989 59.9178 98.7995L83.0942 40.3516C83.3046 39.8211 83.6695 39.3659 84.1416 39.0453C84.6138 38.7246 85.1714 38.5531 85.7421 38.5531Z" fill="white"/>
<path d="M27.1925 18.7454V24.6467C27.1925 25.2396 27.0758 25.8266 26.8489 26.3743C26.622 26.9221 26.2895 27.4197 25.8703 27.8389C25.4511 28.2581 24.9534 28.5907 24.4057 28.8176C23.858 29.0444 23.2709 29.1612 22.6781 29.1612H16.3334C15.7405 29.1612 15.1535 29.278 14.6058 29.5048C14.058 29.7317 13.5604 30.0642 13.1412 30.4834C12.722 30.9027 12.3894 31.4004 12.1626 31.9481C11.9357 32.4958 11.8189 33.0828 11.8189 33.6757V47.1385C11.8189 47.7313 11.9357 48.3184 12.1626 48.8661C12.3894 49.4138 12.722 49.9114 13.1412 50.3307C13.5604 50.7499 14.058 51.0824 14.6058 51.3093C15.1535 51.5362 15.7405 51.6529 16.3334 51.6529H44.0601C44.6529 51.6529 45.24 51.5362 45.7877 51.3093C46.3354 51.0824 46.8331 50.7499 47.2523 50.3307C47.6715 49.9114 48.004 49.4138 48.2309 48.8661C48.4578 48.3184 48.5745 47.7313 48.5745 47.1385V18.7454C48.5745 17.5481 48.0989 16.3998 47.2523 15.5532C46.4057 14.7066 45.2574 14.231 44.0601 14.231H31.707C31.1141 14.231 30.5271 14.3477 29.9794 14.5746C29.4317 14.8015 28.934 15.134 28.5148 15.5532C28.0956 15.9724 27.7631 16.4701 27.5362 17.0178C27.3093 17.5655 27.1925 18.1526 27.1925 18.7454Z" fill="#282828"/>
<path d="M157.237 100.403C150.575 100.403 144.756 99.1586 139.78 96.6705C134.884 94.1021 131.072 90.4903 128.343 85.8351C125.694 81.1799 124.37 75.7221 124.37 69.4617C124.37 63.2815 125.734 57.8638 128.463 53.2086C131.192 48.4731 135.005 44.8212 139.9 42.2528C144.796 39.6042 150.455 38.2799 156.876 38.2799C161.29 38.2799 165.504 39.0825 169.517 40.6877C173.53 42.2127 177.102 44.5002 180.232 47.5501L169.758 58.9875C166.387 55.8572 162.414 54.2921 157.839 54.2921C153.505 54.2921 149.973 55.6967 147.244 58.5059C144.516 61.2348 143.151 64.8466 143.151 69.3413C143.151 73.8359 144.475 77.4878 147.124 80.297C149.853 83.0259 153.425 84.3904 157.839 84.3904C162.735 84.3904 166.909 82.6647 170.36 79.2135L181.075 90.5304C174.413 97.1119 166.467 100.403 157.237 100.403ZM217.795 100.403C211.213 100.403 205.434 99.1185 200.458 96.5501C195.562 93.9014 191.79 90.2495 189.141 85.5943C186.492 80.9391 185.168 75.5214 185.168 69.3413C185.168 63.1611 186.492 57.7434 189.141 53.0882C191.79 48.433 195.562 44.8212 200.458 42.2528C205.434 39.6042 211.213 38.2799 217.795 38.2799C224.376 38.2799 230.155 39.6042 235.131 42.2528C240.108 44.8212 243.92 48.433 246.569 53.0882C249.217 57.7434 250.542 63.1611 250.542 69.3413C250.542 75.5214 249.217 80.9391 246.569 85.5943C243.92 90.2495 240.108 93.9014 235.131 96.5501C230.155 99.1185 224.376 100.403 217.795 100.403ZM217.795 84.3904C221.968 84.3904 225.339 82.9858 227.908 80.1766C230.476 77.3675 231.76 73.7557 231.76 69.3413C231.76 64.9269 230.476 61.3151 227.908 58.5059C225.339 55.6967 221.968 54.2921 217.795 54.2921C213.701 54.2921 210.37 55.6967 207.802 58.5059C205.234 61.3151 203.949 64.9269 203.949 69.3413C203.949 73.7557 205.234 77.3675 207.802 80.1766C210.37 82.9858 213.701 84.3904 217.795 84.3904ZM323.74 14.8032V99.0783H307.367L306.163 91.9751C301.107 97.5132 294.525 100.282 286.419 100.282C280.881 100.282 275.944 98.9981 271.61 96.4297C267.356 93.781 264.026 90.1291 261.618 85.4739C259.21 80.7385 258.006 75.3609 258.006 69.3413C258.006 63.3216 259.21 57.9842 261.618 53.329C264.026 48.5935 267.356 44.9416 271.61 42.3732C275.944 39.7246 280.881 38.4003 286.419 38.4003C293.722 38.4003 299.863 40.6877 304.839 45.2627V14.8032H323.74ZM290.873 84.3904C295.047 84.3904 298.458 83.0259 301.107 80.297C303.755 77.4878 305.08 73.8359 305.08 69.3413C305.08 64.8466 303.755 61.2348 301.107 58.5059C298.458 55.6967 295.047 54.2921 290.873 54.2921C286.7 54.2921 283.288 55.6967 280.64 58.5059C278.071 61.3151 276.787 64.9269 276.787 69.3413C276.787 73.7557 278.071 77.3675 280.64 80.1766C283.288 82.9858 286.7 84.3904 290.873 84.3904ZM400.431 39.6042V99.0783H384.057L382.853 91.9751C377.797 97.5132 371.215 100.282 363.109 100.282C357.571 100.282 352.635 98.9981 348.301 96.4297C344.047 93.781 340.716 90.1291 338.308 85.4739C335.9 80.7385 334.696 75.3609 334.696 69.3413C334.696 63.3216 335.9 57.9842 338.308 53.329C340.716 48.5935 344.047 44.9416 348.301 42.3732C352.635 39.7246 357.571 38.4003 363.109 38.4003C367.122 38.4003 370.814 39.1226 374.185 40.5673C377.556 41.9318 380.446 43.9383 382.853 46.587L384.057 39.6042H400.431ZM367.563 84.3904C371.737 84.3904 375.148 83.0259 377.797 80.297C380.446 77.4878 381.77 73.8359 381.77 69.3413C381.77 64.8466 380.446 61.2348 377.797 58.5059C375.148 55.6967 371.737 54.2921 367.563 54.2921C363.39 54.2921 359.979 55.6967 357.33 58.5059C354.762 61.3151 353.477 64.9269 353.477 69.3413C353.477 73.7557 354.762 77.3675 357.33 80.1766C359.979 82.9858 363.39 84.3904 367.563 84.3904ZM448.467 38.2799C451.196 38.2799 453.925 38.8016 456.654 39.845C459.383 40.8081 461.751 42.2528 463.757 44.1791L455.811 58.0243C454.126 56.9809 452.561 56.2184 451.116 55.7368C449.671 55.2553 448.146 55.0145 446.541 55.0145C442.528 55.0145 439.358 56.2987 437.03 58.8671C434.703 61.4354 433.539 65.2078 433.539 70.184V99.0783H414.637V39.6042H431.131L432.576 47.0686C436.428 41.2094 441.725 38.2799 448.467 38.2799ZM512.757 96.7909C508.102 99.1185 502.845 100.282 496.986 100.282C490.485 100.282 485.348 98.4764 481.576 94.8646C477.803 91.1725 475.917 85.2733 475.917 77.1668V54.6533H465.804V39.6042H475.917V24.7958L494.699 22.7492V39.6042H509.507V54.6533H494.699V77.1668C494.699 79.5747 495.3 81.3806 496.504 82.5845C497.708 83.7081 499.354 84.27 501.441 84.27C503.768 84.27 506.056 83.7081 508.303 82.5845L512.757 96.7909Z" fill="#282828"/>
</g>
<defs>
<clipPath id="clip0_7_55">
<rect width="513" height="132" fill="white"/>
</clipPath>
</defs>
</svg>
