<svg width="213" height="50" viewBox="0 0 213 50" fill="none" xmlns="http://www.w3.org/2000/svg">
<g clip-path="url(#clip0_18_110)">
<path fill-rule="evenodd" clip-rule="evenodd" d="M4.73661 13.8851L16.6404 20.3825L15.5067 22.4968L3.61045 16.0035V33.5067L13.5697 27.7243L14.7581 29.8077L4.49826 35.7647L20.4901 45.012V32.9327H22.8726V44.8738L38.4095 35.8897L28.9562 30.2409L30.1701 28.1726L39.5133 33.7553V16.2033L27.5596 22.5767L26.4464 20.4513L38.5667 13.9891L22.8726 4.91394V16.3621H20.4901V4.77575L4.73661 13.8851ZM43.0871 12.4469L21.5618 0L0.0366211 12.4469V37.3409L21.5618 49.7877L43.0871 37.3409V12.4469Z" fill="black"/>
<path d="M21.5012 13.0892L31.3187 18.7774V30.1541L21.5012 35.8423L11.6836 30.1541V18.7774L21.5012 13.0892Z" fill="black"/>
<path d="M51.0818 35.5769V13.4231H55.7783V35.5769H51.0818ZM65.2932 35.5769V13.4231H69.9897V35.5769H65.2932ZM53.2775 22.2231H67.428V25.8538H53.2775V22.2231ZM73.336 35.5769V19.8846H77.9105V35.5769H73.336ZM73.1835 17.7923V12.8077H78.063V17.7923H73.1835ZM91.0403 35.8846C89.5562 35.8846 88.3668 35.5358 87.4721 34.8384C86.5775 34.1411 86.049 33.1872 85.8863 31.9769L86.1303 31.9461V41.8846H81.5558V19.8846H86.0388V23.3615L85.7643 23.3C85.9881 22.1513 86.598 21.2487 87.5941 20.5923C88.5903 19.9154 89.8204 19.5769 91.2842 19.5769C92.6871 19.5769 93.8967 19.9154 94.9133 20.5923C95.9502 21.2487 96.7431 22.182 97.2921 23.3923C97.8613 24.6026 98.146 26.0281 98.146 27.6692C98.146 29.3308 97.8513 30.7769 97.2616 32.0077C96.6719 33.2384 95.8485 34.1923 94.7913 34.8692C93.7342 35.5461 92.4838 35.8846 91.0403 35.8846ZM89.7594 32.1923C90.837 32.1923 91.7112 31.8026 92.3821 31.0231C93.053 30.2435 93.3885 29.1358 93.3885 27.7C93.3885 26.2642 93.0428 25.1666 92.3516 24.4077C91.6807 23.6487 90.7963 23.2692 89.6984 23.2692C88.6413 23.2692 87.7669 23.659 87.0757 24.4384C86.4048 25.1973 86.0693 26.2949 86.0693 27.7308C86.0693 29.1666 86.4048 30.2743 87.0757 31.0538C87.7669 31.8127 88.6615 32.1923 89.7594 32.1923ZM108.323 35.8846C106.594 35.8846 105.09 35.5461 103.809 34.8692C102.528 34.1719 101.532 33.2077 100.82 31.9769C100.129 30.7461 99.7835 29.3308 99.7835 27.7308C99.7835 26.1103 100.129 24.6949 100.82 23.4846C101.532 22.2538 102.518 21.3 103.779 20.6231C105.039 19.9256 106.503 19.5769 108.17 19.5769C109.776 19.5769 111.169 19.9051 112.348 20.5615C113.527 21.2179 114.442 22.1308 115.093 23.3C115.743 24.4692 116.069 25.8435 116.069 27.4231C116.069 27.7512 116.058 28.0589 116.038 28.3461C116.018 28.6127 115.987 28.8692 115.947 29.1154H102.467V26.0692H112.257L111.464 26.6231C111.464 25.3512 111.159 24.418 110.549 23.8231C109.959 23.2077 109.146 22.9 108.109 22.9C106.909 22.9 105.974 23.3103 105.303 24.1308C104.653 24.9512 104.327 26.182 104.327 27.8231C104.327 29.4231 104.653 30.6127 105.303 31.3923C105.974 32.1719 106.97 32.5615 108.292 32.5615C109.024 32.5615 109.654 32.4384 110.183 32.1923C110.712 31.9461 111.108 31.5461 111.372 30.9923H115.672C115.164 32.5103 114.29 33.7103 113.05 34.5923C111.83 35.4538 110.254 35.8846 108.323 35.8846ZM118.515 35.5769V19.8846H122.998V23.5769H123.09V35.5769H118.515ZM123.09 27.3923L122.693 23.6692C123.059 22.3359 123.659 21.3205 124.492 20.6231C125.326 19.9256 126.363 19.5769 127.603 19.5769C127.989 19.5769 128.274 19.6179 128.457 19.7V24.0077C128.355 23.9666 128.213 23.9461 128.03 23.9461C127.847 23.9256 127.623 23.9154 127.359 23.9154C125.895 23.9154 124.818 24.182 124.126 24.7154C123.435 25.2281 123.09 26.1204 123.09 27.3923ZM130.666 35.5769V19.8846H135.149V23.5769H135.241V35.5769H130.666ZM141.492 35.5769V25.8538C141.492 24.9923 141.269 24.3461 140.822 23.9154C140.395 23.4846 139.764 23.2692 138.931 23.2692C138.219 23.2692 137.579 23.4333 137.009 23.7615C136.46 24.0897 136.023 24.5411 135.698 25.1154C135.393 25.6897 135.241 26.3666 135.241 27.1461L134.844 23.3615C135.352 22.2128 136.095 21.3 137.07 20.6231C138.067 19.9256 139.286 19.5769 140.73 19.5769C142.458 19.5769 143.78 20.0692 144.695 21.0538C145.609 22.0179 146.067 23.3205 146.067 24.9615V35.5769H141.492ZM156.867 35.8846C155.139 35.8846 153.634 35.5461 152.354 34.8692C151.073 34.1719 150.077 33.2077 149.365 31.9769C148.674 30.7461 148.328 29.3308 148.328 27.7308C148.328 26.1103 148.674 24.6949 149.365 23.4846C150.077 22.2538 151.062 21.3 152.323 20.6231C153.584 19.9256 155.047 19.5769 156.715 19.5769C158.321 19.5769 159.713 19.9051 160.893 20.5615C162.072 21.2179 162.987 22.1308 163.637 23.3C164.288 24.4692 164.613 25.8435 164.613 27.4231C164.613 27.7512 164.603 28.0589 164.583 28.3461C164.562 28.6127 164.532 28.8692 164.491 29.1154H151.012V26.0692H160.801L160.008 26.6231C160.008 25.3512 159.703 24.418 159.093 23.8231C158.504 23.2077 157.69 22.9 156.654 22.9C155.454 22.9 154.519 23.3103 153.848 24.1308C153.197 24.9512 152.872 26.182 152.872 27.8231C152.872 29.4231 153.197 30.6127 153.848 31.3923C154.519 32.1719 155.515 32.5615 156.837 32.5615C157.568 32.5615 158.199 32.4384 158.727 32.1923C159.256 31.9461 159.652 31.5461 159.917 30.9923H164.217C163.709 32.5103 162.834 33.7103 161.594 34.5923C160.374 35.4538 158.799 35.8846 156.867 35.8846ZM167.06 35.5769V19.8846H171.543V23.5769H171.634V35.5769H167.06ZM171.634 27.3923L171.238 23.6692C171.604 22.3359 172.203 21.3205 173.037 20.6231C173.871 19.9256 174.907 19.5769 176.148 19.5769C176.534 19.5769 176.819 19.6179 177.001 19.7V24.0077C176.9 23.9666 176.758 23.9461 176.575 23.9461C176.392 23.9256 176.168 23.9154 175.904 23.9154C174.44 23.9154 173.362 24.182 172.671 24.7154C171.98 25.2281 171.634 26.1204 171.634 27.3923ZM186.139 42.1923C183.984 42.1923 182.225 41.7308 180.863 40.8077C179.521 39.8846 178.728 38.6334 178.484 37.0538H182.815C182.978 37.4435 183.323 37.7411 183.852 37.9461C184.401 38.1512 185.092 38.2538 185.926 38.2538C187.308 38.2538 188.315 37.9872 188.945 37.4538C189.575 36.9204 189.89 36.0897 189.89 34.9615V31.5461L190.134 31.6077C189.931 32.7565 189.341 33.6692 188.365 34.3461C187.389 35.0026 186.18 35.3308 184.736 35.3308C183.354 35.3308 182.144 35.0127 181.107 34.3769C180.09 33.7204 179.298 32.8077 178.728 31.6384C178.159 30.4692 177.874 29.0949 177.874 27.5154C177.874 25.9154 178.169 24.5204 178.759 23.3308C179.349 22.141 180.172 21.2179 181.229 20.5615C182.307 19.9051 183.557 19.5769 184.98 19.5769C186.444 19.5769 187.633 19.9256 188.548 20.6231C189.483 21.3205 190.032 22.2743 190.195 23.4846L189.982 23.5154V19.8846H194.465V34.9C194.465 37.1565 193.722 38.9308 192.238 40.2231C190.754 41.5358 188.721 42.1923 186.139 42.1923ZM186.322 31.7923C187.4 31.7923 188.274 31.4231 188.945 30.6846C189.616 29.9257 189.951 28.8488 189.951 27.4538C189.951 26.0589 189.605 24.9923 188.914 24.2538C188.243 23.4949 187.359 23.1154 186.261 23.1154C185.204 23.1154 184.329 23.4949 183.638 24.2538C182.967 25.0127 182.632 26.0897 182.632 27.4846C182.632 28.8796 182.967 29.9461 183.638 30.6846C184.329 31.4231 185.224 31.7923 186.322 31.7923ZM198.915 41.8846L203.215 32.2846L204.008 30.9615L208.033 19.8846H212.913L203.489 41.8846H198.915ZM202.209 35.2692L196.231 19.8846H201.172L206.082 33.9154L202.209 35.2692Z" fill="black"/>
</g>
<defs>
<clipPath id="clip0_18_110">
<rect width="213" height="50" fill="white"/>
</clipPath>
</defs>
</svg>
